<?xml version="1.0" encoding="UTF-8"?>
<svg xmlns="http://www.w3.org/2000/svg" version="1.1" xmlns:xlink="http://www.w3.org/1999/xlink" viewBox="0 0 800 800">
  <defs>
    <style>
      .cls-1 {
        fill: #fff;
      }

      .cls-1, .cls-2 {
        stroke: #231f20;
        stroke-miterlimit: 10;
      }

      .cls-3 {
        fill: none;
      }

      .cls-2 {
        fill: url(#New_Pattern_3);
      }
    </style>
    <pattern id="New_Pattern_3" data-name="New Pattern 3" x="0" y="0" width="197.84" height="114.22" patternUnits="userSpaceOnUse" viewBox="0 0 197.84 114.22">
      <g>
        <rect class="cls-3" x="0" width="197.84" height="114.22"/>
        <polygon class="cls-1" points="230.52 57.61 165.15 57.61 132.47 114.22 165.15 170.83 230.52 170.83 263.21 114.22 230.52 57.61"/>
        <polygon class="cls-1" points="32.68 57.61 -32.68 57.61 -65.37 114.22 -32.68 170.83 32.68 170.83 65.37 114.22 32.68 57.61"/>
        <polygon class="cls-1" points="230.52 -56.61 165.15 -56.61 132.47 0 165.15 56.61 230.52 56.61 263.21 0 230.52 -56.61"/>
        <polygon class="cls-1" points="131.6 .5 66.23 .5 33.55 57.11 66.23 113.72 131.6 113.72 164.29 57.11 131.6 .5"/>
        <polygon class="cls-1" points="32.68 -56.61 -32.68 -56.61 -65.37 0 -32.68 56.61 32.68 56.61 65.37 0 32.68 -56.61"/>
      </g>
    </pattern>
  </defs>
  <!-- Generator: Adobe Illustrator 28.7.5, SVG Export Plug-In . SVG Version: 1.2.0 Build 176)  -->
  <g>
    <g id="Layer_1">
      <rect class="cls-2" x="-104.52" y="-121.67" width="1000" height="1069.71"/>
    </g>
  </g>
</svg>